<svg id="Layer_1" width="64px" height="64px" data-name="Layer 1" xmlns="http://www.w3.org/2000/svg" viewBox="0 0 23.39 18.51">
  <defs>
    <style>
      .cls-1, .cls-2, .cls-3 {
        stroke-width: 0px;
      }

      .cls-2 {
        fill: #fff;
      }

      .cls-4 {
        fill: gray;
        stroke: #000;
        stroke-miterlimit: 10;
        stroke-width: .5px;
      }

      .cls-3 {
        fill: #f76d57;
      }
    </style>
  </defs>
  <g>
    <path class="cls-4" d="m1.9.61c-.34.31-.49.81-.44,1.43.08,1.56,1.3,3.89,3.28,6.05s4.2,3.57,5.75,3.78c.61.09,1.12-.01,1.46-.32,1.21-1.11-.06-4.46-2.84-7.47S3.11-.5,1.9.61Z"/>
    <path class="cls-4" d="m1.31,2.16C-.5,3.82.06,7.38,2.55,10.09s5.99,3.57,7.8,1.91c.05-.05.09-.09.14-.14-1.55-.21-3.77-1.62-5.75-3.78S1.54,3.59,1.46,2.04c-.05.04-.1.08-.15.13Z"/>
    <path class="cls-4" d="m2.06,10.51c-.17.15-.55,0-.86-.33s-.42-.73-.25-.89c.1-.09.27-.08.47.02.1.13.2.26.32.38s.23.24.35.35c.08.2.08.38-.02.47Z"/>
  </g>
  <rect class="cls-1" x="17.49" y="-2.36" width="1.43" height="11.68" rx=".72" ry=".72" transform="translate(12.35 -14.1) rotate(60.76)"/>
  <ellipse class="cls-4" cx="12.39" cy="16.26" rx="9" ry="2"/>
  <ellipse class="cls-4" cx="12.39" cy="17.26" rx="5" ry="1"/>
  <rect class="cls-2" x="12.91" y="4.54" width="4.5" height="1.28" rx=".57" ry=".57" transform="translate(-.59 8.11) rotate(-29.39)"/>
  <g id="SVGRepo_iconCarrier" data-name="SVGRepo iconCarrier">
    <g>
      <path class="cls-1" d="m14.82,12.94h-.69c0-.58-.47-1.04-1.04-1.04-.27,0-.51.1-.69.27-.18-.17-.43-.27-.69-.27-.58,0-1.04.47-1.04,1.04h-.69c-.19,0-.35.16-.35.35v1.39c0,.19.16.35.35.35v2.08c0,.19.16.35.35.35h4.17c.19,0,.35-.16.35-.35v-2.08c.19,0,.35-.16.35-.35v-1.39c0-.19-.16-.35-.35-.35Zm-1.74-.35c.19,0,.35.16.35.35h-.69c0-.19.16-.35.35-.35Zm-1.39,0c.19,0,.35.16.35.35h-.69c0-.19.16-.35.35-.35Zm.35,4.17h-1.39v-1.74h1.39v1.74Zm0-2.43h-1.74v-.69h1.74v.69Zm2.08,2.43h-1.39v-1.74h1.39v1.74Zm.35-2.43h-1.74v-.69h1.74v.69Z"/>
      <g>
        <rect class="cls-3" x="10.65" y="15.02" width="1.39" height="1.74"/>
        <rect class="cls-3" x="10.3" y="13.63" width="1.74" height=".69"/>
        <rect class="cls-3" x="12.74" y="15.02" width="1.39" height="1.74"/>
        <rect class="cls-3" x="12.74" y="13.63" width="1.74" height=".69"/>
      </g>
    </g>
  </g>
</svg>